<?xml version="1.0" standalone="no"?>
<!DOCTYPE svg PUBLIC "-//W3C//DTD SVG 20010904//EN"
 "http://www.w3.org/TR/2001/REC-SVG-20010904/DTD/svg10.dtd">
<svg version="1.0" xmlns="http://www.w3.org/2000/svg"
 width="700.000000pt" height="700.000000pt" viewBox="0 0 700.000000 700.000000"
 preserveAspectRatio="xMidYMid meet">
<metadata>
Created by potrace 1.14, written by Peter Selinger 2001-2017
</metadata>
<g transform="translate(0.000000,700.000000) scale(0.100000,-0.100000)"
fill="#000000" stroke="none">
<path d="M3287 6829 c-108 -16 -203 -86 -254 -187 l-28 -55 0 -3086 0 -3086
27 -55 c125 -255 475 -256 600 -2 l33 67 0 3075 0 3075 -26 55 c-69 144 -205
220 -352 199z"/>
<path d="M928 6165 c-2 -2 -28 -6 -60 -9 -299 -35 -591 -241 -745 -526 -30
-56 -76 -181 -87 -235 -4 -16 -10 -43 -14 -60 -9 -38 -9 -3594 0 -3656 62
-424 409 -769 839 -836 24 -3 235 -7 469 -7 l425 0 58 28 c75 37 126 88 162
161 25 51 29 72 30 140 0 71 -4 88 -33 147 -34 70 -91 126 -167 163 -37 19
-68 20 -460 25 l-420 5 -55 27 c-98 48 -170 141 -187 243 -5 28 -8 813 -8
1745 0 1665 1 1697 20 1754 35 103 133 192 236 215 27 6 203 11 422 11 318 1
384 3 424 17 254 85 312 414 102 578 -88 68 -89 68 -541 70 -224 1 -409 1
-410 0z"/>
<path d="M4937 6158 c-182 -39 -298 -233 -247 -417 23 -87 100 -173 189 -215
44 -20 64 -21 466 -26 l420 -5 63 -34 c74 -40 115 -84 151 -161 l26 -55 0
-1745 0 -1745 -22 -47 c-30 -66 -69 -114 -117 -147 -81 -55 -81 -55 -526 -61
l-415 -5 -57 -28 c-251 -123 -255 -471 -7 -598 23 -11 51 -23 63 -26 11 -3
200 -7 418 -8 286 -1 422 2 486 11 337 50 628 276 765 594 45 106 59 155 75
276 12 96 7 3560 -6 3619 -6 28 -14 61 -16 74 -30 140 -131 324 -245 445 -149
157 -326 252 -551 298 -65 13 -856 19 -913 6z"/>
</g>
</svg>
